<svg version="1.1" id="Layer_1" xmlns="http://www.w3.org/2000/svg" xmlns:xlink="http://www.w3.org/1999/xlink" x="0px" y="0px"
	 width="100%" viewBox="0 0 500 500" enable-background="new 0 0 500 500" xml:space="preserve">
<path fill="#000000" opacity="1.000000" stroke="none" 
	d="
M298.000000,501.000000 
	C198.666687,501.000000 99.833382,501.000000 1.000053,501.000000 
	C1.000035,334.333405 1.000035,167.666794 1.000018,1.000143 
	C167.666565,1.000095 334.333130,1.000095 500.999756,1.000047 
	C500.999847,167.666519 500.999847,334.333038 500.999939,500.999786 
	C433.500000,501.000000 366.000000,501.000000 298.000000,501.000000 
M84.935463,316.109680 
	C83.877960,315.288635 82.820457,314.467590 80.983521,313.041382 
	C80.983521,337.373657 80.972404,360.061523 81.027184,382.749207 
	C81.029221,383.592346 81.673553,384.433899 82.195572,385.917145 
	C82.675209,388.069153 82.840141,390.354980 83.688354,392.350281 
	C87.584717,401.516113 93.487633,409.136688 102.153603,414.237915 
	C113.481903,420.906281 124.949104,427.339050 136.367905,433.853271 
	C146.497635,439.631989 156.625427,445.414551 166.785645,451.139374 
	C180.104614,458.644012 193.460556,466.083038 206.789413,473.570160 
	C218.685318,480.252380 231.137268,485.207367 245.259003,486.833557 
	C254.220505,486.625336 263.324524,488.531891 272.902557,485.026062 
	C274.367462,484.877533 275.868011,484.883759 277.291595,484.555817 
	C287.819611,482.130463 297.478210,477.718506 306.853882,472.352295 
	C321.030304,464.238403 335.601593,456.817230 349.842133,448.811859 
	C368.093109,438.552032 386.267303,428.148834 404.311432,417.530121 
	C416.128326,410.576019 425.796143,401.538605 429.338684,387.602112 
	C429.770142,385.904755 429.132050,383.935516 429.776855,381.681976 
	C429.776855,359.148987 429.776855,336.615967 429.776855,312.835419 
	C427.963715,314.367828 426.980896,315.198456 425.879791,316.358582 
	C425.879791,316.358582 426.014740,316.681610 425.598145,317.081512 
	C425.118805,317.662506 424.639496,318.243530 423.791626,319.413483 
	C417.627350,324.639099 411.728394,330.229156 405.213104,334.972717 
	C400.187622,338.631622 394.393707,341.237366 388.932281,344.294952 
	C374.640472,352.296234 360.349457,360.299072 346.046692,368.280731 
	C336.360596,373.686127 326.537689,378.857483 316.984283,384.487061 
	C300.304108,394.316193 283.405579,403.018677 263.604614,405.229401 
	C248.373535,406.929932 233.853760,404.073700 220.617798,398.047180 
	C202.399567,389.752228 185.321671,378.952667 167.755722,369.225250 
	C152.222443,360.623444 136.613571,352.154419 121.181717,343.374359 
	C109.411842,336.677826 97.327621,330.340942 88.381958,319.676605 
	C87.459694,318.577148 86.069687,317.870026 84.935463,316.109680 
M430.097717,131.208588 
	C428.628204,119.892097 423.888458,110.080162 416.339783,101.603775 
	C408.341064,92.622093 398.521515,86.071754 388.000366,80.427986 
	C373.982727,72.908684 360.066162,65.200935 346.049591,57.679569 
	C335.477631,52.006588 324.937469,46.252285 314.161621,40.987572 
	C303.442627,35.750626 292.740814,30.204399 281.483429,26.427200 
	C271.849060,23.194574 261.484375,23.072412 251.092804,23.602512 
	C239.396225,24.199181 227.945190,25.624981 217.550415,30.801178 
	C196.556259,41.255463 175.866318,52.330250 155.183212,63.396423 
	C140.505371,71.249573 125.753319,79.031433 111.557373,87.701424 
	C92.083359,99.594933 80.336678,116.327728 81.760612,140.351700 
	C81.943367,143.434875 80.367409,146.733383 80.957428,149.659683 
	C82.491440,157.267883 86.306160,163.866165 91.701096,169.530228 
	C105.537659,184.057022 123.200203,192.323334 141.600677,198.791992 
	C157.262894,204.298050 173.527328,208.071274 189.452454,212.853806 
	C214.101013,220.256119 238.681076,227.886292 263.302917,235.378006 
	C276.533081,239.403564 289.847168,243.163010 303.013214,247.386124 
	C311.007721,249.950439 318.852753,253.018692 326.651245,256.144196 
	C332.812927,258.613678 336.646423,263.556305 334.931763,270.025940 
	C333.990448,273.577637 330.272949,277.175537 326.876709,279.160614 
	C311.294830,288.268066 295.430634,296.898071 279.579468,305.537476 
	C263.238037,314.444031 247.519058,313.458344 232.206253,302.635773 
	C221.062271,294.759613 209.617203,287.298981 198.159882,279.879303 
	C183.726730,270.532501 169.114365,261.462891 154.634995,252.186798 
	C140.721817,243.273483 126.564842,234.692093 113.110855,225.126724 
	C103.220665,218.095123 94.291580,209.711700 85.020767,201.079590 
	C83.765373,200.691376 82.509987,200.303162 81.023285,199.843430 
	C81.023285,223.125198 81.023285,245.548111 80.882149,268.726013 
	C81.773094,271.024170 82.990608,273.252167 83.502144,275.631866 
	C86.901489,291.445892 96.419083,303.126465 109.632095,311.313141 
	C127.947792,322.661346 146.930267,332.940552 165.712433,343.526306 
	C178.884979,350.950470 192.345688,357.871552 205.411407,365.474945 
	C219.541763,373.697906 234.330597,379.264954 250.847549,380.010284 
	C265.361267,380.665192 279.540161,379.011169 292.741638,373.032715 
	C303.277863,368.261261 313.261230,362.242371 323.378021,356.577240 
	C341.575439,346.387115 359.562164,335.814240 377.878357,325.844727 
	C392.011719,318.151855 406.117584,310.567963 416.671783,297.980957 
	C422.112488,291.492340 426.817352,284.589630 428.648865,275.445038 
	C429.123322,273.433441 429.970825,271.428284 430.005585,269.409119 
	C430.133789,261.958374 429.993103,254.502991 430.078735,246.251495 
	C429.449097,239.680191 426.225952,234.536011 421.670074,229.894638 
	C413.278900,221.346100 403.055267,215.733765 392.259186,211.049377 
	C381.004150,206.165878 369.842560,200.928391 358.250488,196.993362 
	C341.576294,191.333130 324.532715,186.766510 307.680908,181.621384 
	C299.532562,179.133591 291.485382,176.316071 283.350952,173.780838 
	C269.043854,169.321823 254.694946,164.997147 240.383331,160.552536 
	C232.456314,158.090714 224.474884,155.757950 216.686768,152.906036 
	C205.278580,148.728500 193.650909,144.884247 182.810791,139.500580 
	C173.081894,134.668793 174.217209,122.944534 183.024811,118.165802 
	C201.311722,108.243912 219.319336,97.807991 237.483292,87.657700 
	C239.615433,86.466232 241.935562,85.212128 244.292389,84.888214 
	C257.152802,83.120712 269.365295,84.339966 280.849396,91.500458 
	C296.075531,100.994171 311.764832,109.744453 327.243988,118.833153 
	C342.717621,127.918602 358.159821,137.057739 373.649323,146.116028 
	C385.312653,152.936722 396.982300,159.749252 408.741028,166.402985 
	C414.720490,169.786499 420.902740,172.811661 427.372681,176.673126 
	C431.264740,177.658691 430.927460,174.451202 430.909729,172.546814 
	C430.859406,167.151520 430.162079,161.764389 430.046478,156.367065 
	C429.872803,148.258530 429.977203,140.144043 430.097717,131.208588 
z"/>
<path fill="#363F48" opacity="1.000000" stroke="none" 
	d="
M428.015381,275.903992 
	C426.817352,284.589630 422.112488,291.492340 416.671783,297.980957 
	C406.117584,310.567963 392.011719,318.151855 377.878357,325.844727 
	C359.562164,335.814240 341.575439,346.387115 323.378021,356.577240 
	C313.261230,362.242371 303.277863,368.261261 292.741638,373.032715 
	C279.540161,379.011169 265.361267,380.665192 250.847549,380.010284 
	C234.330597,379.264954 219.541763,373.697906 205.411407,365.474945 
	C192.345688,357.871552 178.884979,350.950470 165.712433,343.526306 
	C146.930267,332.940552 127.947792,322.661346 109.632095,311.313141 
	C96.419083,303.126465 86.901489,291.445892 83.502144,275.631866 
	C82.990608,273.252167 81.773094,271.024170 81.383011,268.228882 
	C81.979851,265.924805 82.157303,264.117920 82.159256,262.310852 
	C82.179512,243.597794 82.147095,224.884628 82.209885,206.171753 
	C82.216003,204.349243 81.084717,201.436447 84.934196,201.930695 
	C94.291580,209.711700 103.220665,218.095123 113.110855,225.126724 
	C126.564842,234.692093 140.721817,243.273483 154.634995,252.186798 
	C169.114365,261.462891 183.726730,270.532501 198.159882,279.879303 
	C209.617203,287.298981 221.062271,294.759613 232.206253,302.635773 
	C247.519058,313.458344 263.238037,314.444031 279.579468,305.537476 
	C295.430634,296.898071 311.294830,288.268066 326.876709,279.160614 
	C330.272949,277.175537 333.990448,273.577637 334.931763,270.025940 
	C336.646423,263.556305 332.812927,258.613678 326.651245,256.144196 
	C318.852753,253.018692 311.007721,249.950439 303.013214,247.386124 
	C289.847168,243.163010 276.533081,239.403564 263.302917,235.378006 
	C238.681076,227.886292 214.101013,220.256119 189.452454,212.853806 
	C173.527328,208.071274 157.262894,204.298050 141.600677,198.791992 
	C123.200203,192.323334 105.537659,184.057022 91.701096,169.530228 
	C86.306160,163.866165 82.491440,157.267883 80.957428,149.659683 
	C80.367409,146.733383 81.943367,143.434875 81.760612,140.351700 
	C80.336678,116.327728 92.083359,99.594933 111.557373,87.701424 
	C125.753319,79.031433 140.505371,71.249573 155.183212,63.396423 
	C175.866318,52.330250 196.556259,41.255463 217.550415,30.801178 
	C227.945190,25.624981 239.396225,24.199181 251.092804,23.602512 
	C261.484375,23.072412 271.849060,23.194574 281.483429,26.427200 
	C292.740814,30.204399 303.442627,35.750626 314.161621,40.987572 
	C324.937469,46.252285 335.477631,52.006588 346.049591,57.679569 
	C360.066162,65.200935 373.982727,72.908684 388.000366,80.427986 
	C398.521515,86.071754 408.341064,92.622093 416.339783,101.603775 
	C423.888458,110.080162 428.628204,119.892097 429.635803,131.804962 
	C429.071075,145.488846 429.025818,158.577408 428.784821,171.662369 
	C428.758026,173.118347 427.617401,174.553818 426.993347,175.998810 
	C420.902740,172.811661 414.720490,169.786499 408.741028,166.402985 
	C396.982300,159.749252 385.312653,152.936722 373.649323,146.116028 
	C358.159821,137.057739 342.717621,127.918602 327.243988,118.833153 
	C311.764832,109.744453 296.075531,100.994171 280.849396,91.500458 
	C269.365295,84.339966 257.152802,83.120712 244.292389,84.888214 
	C241.935562,85.212128 239.615433,86.466232 237.483292,87.657700 
	C219.319336,97.807991 201.311722,108.243912 183.024811,118.165802 
	C174.217209,122.944534 173.081894,134.668793 182.810791,139.500580 
	C193.650909,144.884247 205.278580,148.728500 216.686768,152.906036 
	C224.474884,155.757950 232.456314,158.090714 240.383331,160.552536 
	C254.694946,164.997147 269.043854,169.321823 283.350952,173.780838 
	C291.485382,176.316071 299.532562,179.133591 307.680908,181.621384 
	C324.532715,186.766510 341.576294,191.333130 358.250488,196.993362 
	C369.842560,200.928391 381.004150,206.165878 392.259186,211.049377 
	C403.055267,215.733765 413.278900,221.346100 421.670074,229.894638 
	C426.225952,234.536011 429.449097,239.680191 429.619843,246.831085 
	C428.779083,256.908447 428.397217,266.406219 428.015381,275.903992 
z"/>
<path fill="#363F48" opacity="1.000000" stroke="none" 
	d="
M428.989624,382.092285 
	C429.132050,383.935516 429.770142,385.904755 429.338684,387.602112 
	C425.796143,401.538605 416.128326,410.576019 404.311432,417.530121 
	C386.267303,428.148834 368.093109,438.552032 349.842133,448.811859 
	C335.601593,456.817230 321.030304,464.238403 306.853882,472.352295 
	C297.478210,477.718506 287.819611,482.130463 277.291595,484.555817 
	C275.868011,484.883759 274.367462,484.877533 272.153625,484.890198 
	C262.586395,485.167053 253.768112,485.579834 244.949829,485.992584 
	C231.137268,485.207367 218.685318,480.252380 206.789413,473.570160 
	C193.460556,466.083038 180.104614,458.644012 166.785645,451.139374 
	C156.625427,445.414551 146.497635,439.631989 136.367905,433.853271 
	C124.949104,427.339050 113.481903,420.906281 102.153603,414.237915 
	C93.487633,409.136688 87.584717,401.516113 83.688354,392.350281 
	C82.840141,390.354980 82.675209,388.069153 82.252670,385.129211 
	C82.309776,361.470795 82.309776,338.600311 82.309776,315.158112 
	C83.590378,316.060425 84.243553,316.520630 84.896729,316.980865 
	C86.069687,317.870026 87.459694,318.577148 88.381958,319.676605 
	C97.327621,330.340942 109.411842,336.677826 121.181717,343.374359 
	C136.613571,352.154419 152.222443,360.623444 167.755722,369.225250 
	C185.321671,378.952667 202.399567,389.752228 220.617798,398.047180 
	C233.853760,404.073700 248.373535,406.929932 263.604614,405.229401 
	C283.405579,403.018677 300.304108,394.316193 316.984283,384.487061 
	C326.537689,378.857483 336.360596,373.686127 346.046692,368.280731 
	C360.349457,360.299072 374.640472,352.296234 388.932281,344.294952 
	C394.393707,341.237366 400.187622,338.631622 405.213104,334.972717 
	C411.728394,330.229156 417.627350,324.639099 424.310913,319.086060 
	C425.225037,318.066315 425.619873,317.373962 426.014740,316.681610 
	C426.014740,316.681610 425.879791,316.358582 426.208923,316.370422 
	C430.299347,315.995392 428.816620,318.962250 428.826721,320.431427 
	C428.967712,340.984467 428.960663,361.538483 428.989624,382.092285 
z"/>
<path fill="#B0B3B7" opacity="1.000000" stroke="none" 
	d="
M429.383240,381.887146 
	C428.960663,361.538483 428.967712,340.984467 428.826721,320.431427 
	C428.816620,318.962250 430.299347,315.995392 426.268097,316.205658 
	C426.980896,315.198456 427.963715,314.367828 429.776855,312.835419 
	C429.776855,336.615967 429.776855,359.148987 429.383240,381.887146 
z"/>
<path fill="#D4D8DC" opacity="1.000000" stroke="none" 
	d="
M84.916092,316.545288 
	C84.243553,316.520630 83.590378,316.060425 82.309776,315.158112 
	C82.309776,338.600311 82.309776,361.470795 82.164177,384.808777 
	C81.673553,384.433899 81.029221,383.592346 81.027184,382.749207 
	C80.972404,360.061523 80.983521,337.373657 80.983521,313.041382 
	C82.820457,314.467590 83.877960,315.288635 84.916092,316.545288 
z"/>
<path fill="#D4D9DD" opacity="1.000000" stroke="none" 
	d="
M84.977478,201.505142 
	C81.084717,201.436447 82.216003,204.349243 82.209885,206.171753 
	C82.147095,224.884628 82.179512,243.597794 82.159256,262.310852 
	C82.157303,264.117920 81.979851,265.924805 81.453575,267.851379 
	C81.023285,245.548111 81.023285,223.125198 81.023285,199.843430 
	C82.509987,200.303162 83.765373,200.691376 84.977478,201.505142 
z"/>
<path fill="#AFB1B6" opacity="1.000000" stroke="none" 
	d="
M427.183014,176.335968 
	C427.617401,174.553818 428.758026,173.118347 428.784821,171.662369 
	C429.025818,158.577408 429.071075,145.488846 429.568634,132.216721 
	C429.977203,140.144043 429.872803,148.258530 430.046478,156.367065 
	C430.162079,161.764389 430.859406,167.151520 430.909729,172.546814 
	C430.927460,174.451202 431.264740,177.658691 427.183014,176.335968 
z"/>
<path fill="#D5D8DB" opacity="1.000000" stroke="none" 
	d="
M245.104416,486.413086 
	C253.768112,485.579834 262.586395,485.167053 271.734314,484.890808 
	C263.324524,488.531891 254.220505,486.625336 245.104416,486.413086 
z"/>
<path fill="#B9BABE" opacity="1.000000" stroke="none" 
	d="
M428.332092,275.674500 
	C428.397217,266.406219 428.779083,256.908447 429.557251,247.230011 
	C429.993103,254.502991 430.133789,261.958374 430.005585,269.409119 
	C429.970825,271.428284 429.123322,273.433441 428.332092,275.674500 
z"/>
<path fill="#B0B3B7" opacity="1.000000" stroke="none" 
	d="
M425.806458,316.881561 
	C425.619873,317.373962 425.225037,318.066315 424.495178,318.791595 
	C424.639496,318.243530 425.118805,317.662506 425.806458,316.881561 
z"/>
</svg>